<svg width="32" height="17" viewBox="0 0 32 17" fill="none" xmlns="http://www.w3.org/2000/svg">
<path d="M26.7304 4.81428C23.6798 4.81428 21.6994 7.20443 21.0487 7.98985C21.044 7.99562 21.0392 8.00139 21.0344 8.00716C21.0302 8.00202 21.026 7.99699 21.0219 7.99195C20.3733 7.20601 18.3999 4.81428 15.3245 4.81428C13.3007 4.81428 11.7402 5.83409 10.6827 7.84632C9.78165 6.22859 8.45202 5.40886 6.72695 5.40886C5.28306 5.40886 4.5117 5.79244 4.07944 6.12807C4.16568 5.59016 4.30102 4.76267 4.48432 3.68746H10.3436C10.4885 3.68746 10.6059 3.57006 10.6059 3.42517V1.04709C10.6059 0.902194 10.4885 0.78479 10.3436 0.78479H2.11694C1.98946 0.78479 1.88045 0.876384 1.85852 1.00197L0.467516 8.96842C0.454192 9.0447 0.47528 9.12307 0.525117 9.18235C0.575058 9.24163 0.648501 9.27594 0.72593 9.27594H3.38865C3.48486 9.27594 3.57331 9.22327 3.61916 9.13871C3.62451 9.12884 4.17082 8.15289 5.61429 8.15289C7.14673 8.15289 7.94851 9.35012 7.94851 10.5329C7.94851 11.7936 6.95021 13.2035 5.61429 13.2035C4.29945 13.2035 3.492 12.0788 3.492 11.2726C3.492 11.1277 3.3746 11.0103 3.2297 11.0103H0.262296C0.117404 11.0103 0 11.1277 0 11.2726C0 11.7886 0.201758 12.9383 0.9578 13.9748C1.64355 14.915 3.00801 16.0356 5.61418 16.0356C8.61464 16.0356 10.1643 14.3159 10.7135 13.2628C11.3049 14.2928 12.8148 16.0356 15.3244 16.0356C18.3925 16.0356 20.2324 13.8683 20.9251 13.0525C20.9641 13.0065 21.0052 12.9582 21.0422 12.9155C21.0921 12.9671 21.1499 13.0287 21.2042 13.0865C21.9617 13.8931 23.9739 16.0356 26.7303 16.0356C30.0289 16.0356 32 13.1706 32 10.4008C32 9.01732 31.5447 7.6517 30.7507 6.65392C29.7932 5.45041 28.4029 4.81428 26.7304 4.81428ZM26.7536 12.6737C25.2906 12.6737 23.6634 10.9916 23.1772 10.4496C23.6634 9.90755 25.2906 8.22539 26.7536 8.22539C28.6712 8.22539 28.7268 10.4268 28.7268 10.45C28.7268 10.4722 28.6713 12.6737 26.7536 12.6737ZM15.3411 12.6737C13.4234 12.6737 13.3678 10.4723 13.3678 10.4497V10.4491C13.3678 10.4269 13.4229 8.2255 15.3411 8.2255C16.7977 8.2255 18.4287 9.90713 18.9169 10.4497C18.4291 10.9917 16.798 12.6737 15.3411 12.6737Z" fill="#5EA7EF"/>
</svg>
