<svg width="50" height="50" viewBox="0 0 50 50" fill="none" xmlns="http://www.w3.org/2000/svg">
<path d="M25 46.875C37.0812 46.875 46.875 37.0812 46.875 25C46.875 12.9188 37.0812 3.125 25 3.125C12.9188 3.125 3.125 12.9188 3.125 25C3.125 37.0812 12.9188 46.875 25 46.875Z" fill="url(#paint0_linear_830_434)"/>
<path d="M33.1464 31.69L34.1181 25.5158H28.0394V21.5109C28.0394 19.8214 28.887 18.1736 31.6097 18.1736H34.375V12.9172C34.375 12.9172 31.8664 12.5 29.4692 12.5C24.4606 12.5 21.1902 15.4577 21.1902 20.81V25.5158H15.625V31.69H21.1902V46.6164C22.3073 46.7875 23.4503 46.875 24.6147 46.875C25.7791 46.875 26.9222 46.7875 28.0394 46.6164V31.69H33.1464Z" fill="white"/>
<defs>
<linearGradient id="paint0_linear_830_434" x1="25" y1="3.125" x2="25" y2="46.7453" gradientUnits="userSpaceOnUse">
<stop stop-color="#18ACFE"/>
<stop offset="1" stop-color="#0163E0"/>
</linearGradient>
</defs>
</svg>
