<svg width="32" height="32" viewBox="0 0 32 32" fill="none" xmlns="http://www.w3.org/2000/svg">
<g clip-path="url(#clip0_773_325)">
<path d="M23 0H9C4 0 0 4 0 9V23C0 28 4 32 9 32H23C28 32 32 28 32 23V9C32 4 28 0 23 0Z" fill="#E2E2E2"/>
<path d="M22.0664 21.2C24.8278 21.2 27.0664 18.9614 27.0664 16.2C27.0664 13.4386 24.8278 11.2 22.0664 11.2C19.305 11.2 17.0664 13.4386 17.0664 16.2C17.0664 18.9614 19.305 21.2 22.0664 21.2Z" fill="#555555"/>
<path d="M10 21C12.7614 21 15 18.7614 15 16C15 13.2386 12.7614 11 10 11C7.23858 11 5 13.2386 5 16C5 18.7614 7.23858 21 10 21Z" fill="#555555"/>
<path d="M22.1332 18.6666C20.8077 18.6666 19.7332 17.5921 19.7332 16.2666C19.7332 14.9412 20.8077 13.8666 22.1332 13.8666C23.4587 13.8666 24.5332 14.9412 24.5332 16.2666C24.5332 17.5921 23.4587 18.6666 22.1332 18.6666Z" fill="#E2E2E2"/>
</g>
<defs>
<clipPath id="clip0_773_325">
<rect width="32" height="32" fill="white"/>
</clipPath>
</defs>
</svg>
