<svg width="32" height="32" viewBox="0 0 32 32" fill="none" xmlns="http://www.w3.org/2000/svg">
<g clip-path="url(#clip0_773_330)">
<path fill-rule="evenodd" clip-rule="evenodd" d="M9.39145 0.196367C6.78684 0.313887 4.5293 0.950682 2.70639 2.7659C0.877112 4.59065 0.248226 6.85713 0.130413 9.43465C0.0571782 11.0434 -0.371063 23.1973 0.870746 26.3846C1.70817 28.535 3.3575 30.1883 5.52748 31.0284C6.54003 31.4223 7.6959 31.6889 9.39145 31.7667C23.5688 32.4083 28.8241 32.059 31.0403 26.3846C31.4335 25.3746 31.7042 24.2197 31.779 22.5284C32.427 8.31473 31.674 5.23383 29.2031 2.7659C27.2432 0.810922 24.9379 -0.519873 9.39145 0.196367ZM9.52197 28.9081C7.96971 28.8382 7.12752 28.5796 6.56552 28.362C5.15177 27.8125 4.08987 26.755 3.54379 25.3495C2.59811 22.9276 2.91176 11.4248 2.99614 9.56355C3.07892 7.74039 3.44828 6.07414 4.73466 4.78777C6.32672 3.19965 8.38364 2.42132 22.389 3.0534C24.2167 3.13597 25.8868 3.50457 27.1764 4.78777C28.7684 6.37589 29.5581 8.44864 28.9149 22.4003C28.8448 23.9487 28.5853 24.7889 28.3672 25.3495C26.9264 29.0419 23.6117 29.5544 9.52197 28.9081ZM22.5435 7.5034C22.5435 8.55474 23.3984 9.40965 24.454 9.40965C25.5095 9.40965 26.366 8.55474 26.366 7.5034C26.366 6.45207 25.5095 5.59793 24.454 5.59793C23.3984 5.59793 22.5435 6.45207 22.5435 7.5034ZM7.78027 15.9807C7.78027 20.4846 11.4404 24.1362 15.9555 24.1362C20.4706 24.1362 24.1308 20.4846 24.1308 15.9807C24.1308 11.4768 20.4706 7.82762 15.9555 7.82762C11.4404 7.82762 7.78027 11.4768 7.78027 15.9807ZM10.6492 15.9807C10.6492 13.0586 13.0245 10.6878 15.9555 10.6878C18.8865 10.6878 21.2619 13.0586 21.2619 15.9807C21.2619 18.9045 18.8865 21.2761 15.9555 21.2761C13.0245 21.2761 10.6492 18.9045 10.6492 15.9807Z" fill="#555555"/>
</g>
<defs>
<clipPath id="clip0_773_330">
<rect width="32" height="32" fill="white"/>
</clipPath>
</defs>
</svg>
