<svg width="32" height="32" viewBox="0 0 32 32" fill="none" xmlns="http://www.w3.org/2000/svg">
<g clip-path="url(#clip0_806_436)">
<path d="M5.52195 0.839195C4.46829 1.24903 3.57724 1.79549 2.68618 2.68672C1.79512 3.57146 1.24878 4.4692 0.839024 5.51657C0.442276 6.53141 0.17561 7.69587 0.097561 9.40028C0.0195122 11.1047 0 11.6511 0 15.9967C0 20.3423 0.0195122 20.8888 0.097561 22.5932C0.17561 24.2976 0.448781 25.4621 0.839024 26.4769C1.24878 27.5308 1.79512 28.422 2.68618 29.3133C3.57724 30.2045 4.46829 30.751 5.52195 31.1608C6.53659 31.5576 7.70081 31.8244 9.40488 31.9024C11.1089 31.9805 11.6553 32 16 32C20.3447 32 20.8911 31.9805 22.5951 31.9024C24.2992 31.8244 25.4634 31.5511 26.478 31.1608C27.5317 30.751 28.4228 30.2045 29.3138 29.3133C30.2049 28.422 30.7512 27.5308 31.161 26.4769C31.5577 25.4621 31.8244 24.2976 31.9024 22.5932C31.9805 20.8888 32 20.3423 32 15.9967C32 11.6511 31.9805 11.1047 31.9024 9.40028C31.8244 7.69587 31.5512 6.53141 31.161 5.51657C30.7512 4.4692 30.2049 3.57146 29.3203 2.68672C28.4293 1.79549 27.5382 1.24903 26.4846 0.839195C25.4699 0.442366 24.3057 0.175645 22.6016 0.0975808C20.8976 0.0195162 20.3512 0 16.0065 0C11.6618 0 11.1154 0.0195162 9.41138 0.0975808C7.70081 0.16914 6.53659 0.442366 5.52195 0.839195ZM22.465 2.97296C24.026 3.04452 24.8715 3.30474 25.4374 3.52592C26.1854 3.81866 26.7187 4.16345 27.278 4.72291C27.8374 5.28237 28.1821 5.81582 28.4748 6.56394C28.6959 7.1299 28.9561 7.9756 29.0276 9.5369C29.1057 11.2218 29.1187 11.7292 29.1187 16.0033C29.1187 20.2773 29.0992 20.7847 29.0276 22.4696C28.9561 24.0309 28.6959 24.8766 28.4748 25.4426C28.1821 26.1907 27.8374 26.7241 27.278 27.2836C26.7187 27.8431 26.1854 28.1878 25.4374 28.4806C24.8715 28.7018 24.026 28.962 22.465 29.0335C20.7805 29.1116 20.2732 29.1246 16 29.1246C11.7268 29.1246 11.2195 29.1051 9.53496 29.0335C7.97398 28.962 7.12846 28.7018 6.5626 28.4806C5.81463 28.1878 5.2813 27.8431 4.72195 27.2836C4.1626 26.7241 3.81789 26.1907 3.5252 25.4426C3.30406 24.8766 3.0439 24.0309 2.97236 22.4696C2.89431 20.7847 2.8813 20.2773 2.8813 16.0033C2.8813 11.7292 2.90081 11.2218 2.97236 9.5369C3.0439 7.9756 3.30406 7.1299 3.5252 6.56394C3.81789 5.81582 4.1626 5.28237 4.72195 4.72291C5.2813 4.16345 5.81463 3.81866 6.5626 3.52592C7.12846 3.30474 7.97398 3.04452 9.53496 2.97296C11.2195 2.8949 11.7268 2.88189 16 2.88189C20.2732 2.88189 20.7805 2.8949 22.465 2.97296Z" fill="url(#paint0_radial_806_436)"/>
<path d="M7.78516 16.0034C7.78516 20.5442 11.4665 24.2197 15.9998 24.2197C20.5331 24.2197 24.2144 20.5377 24.2144 16.0034C24.2144 11.4692 20.5396 7.78711 15.9998 7.78711C11.46 7.78711 7.78516 11.4627 7.78516 16.0034ZM21.3331 16.0034C21.3331 18.9504 18.9461 21.3378 15.9998 21.3378C13.0534 21.3378 10.6665 18.9504 10.6665 16.0034C10.6665 13.0565 13.0534 10.669 15.9998 10.669C18.9461 10.669 21.3331 13.0565 21.3331 16.0034Z" fill="url(#paint1_radial_806_436)"/>
<path d="M24.5466 9.37988C25.6063 9.37988 26.4653 8.52085 26.4653 7.46118C26.4653 6.40151 25.6063 5.54248 24.5466 5.54248C23.487 5.54248 22.6279 6.40151 22.6279 7.46118C22.6279 8.52085 23.487 9.37988 24.5466 9.37988Z" fill="#654C9F"/>
</g>
<defs>
<radialGradient id="paint0_radial_806_436" cx="0" cy="0" r="1" gradientUnits="userSpaceOnUse" gradientTransform="translate(0.582241 29.0703) rotate(-3.0007) scale(46.2644 39.3322)">
<stop stop-color="#FED576"/>
<stop offset="0.2634" stop-color="#F47133"/>
<stop offset="0.6091" stop-color="#BC3081"/>
<stop offset="1" stop-color="#4C63D2"/>
</radialGradient>
<radialGradient id="paint1_radial_806_436" cx="0" cy="0" r="1" gradientUnits="userSpaceOnUse" gradientTransform="translate(8.08313 22.7129) rotate(-3.0007) scale(23.7574 20.1976)">
<stop stop-color="#FED576"/>
<stop offset="0.2634" stop-color="#F47133"/>
<stop offset="0.6091" stop-color="#BC3081"/>
<stop offset="1" stop-color="#4C63D2"/>
</radialGradient>
<clipPath id="clip0_806_436">
<rect width="32" height="32" fill="white"/>
</clipPath>
</defs>
</svg>
