<svg width="50" height="50" viewBox="0 0 50 50" fill="none" xmlns="http://www.w3.org/2000/svg">
<path d="M25.0003 45.8333C36.5063 45.8333 45.8337 36.5059 45.8337 25C45.8337 13.494 36.5063 4.16663 25.0003 4.16663C13.4944 4.16663 4.16699 13.494 4.16699 25C4.16699 36.5059 13.4944 45.8333 25.0003 45.8333Z" fill="#0077B5"/>
<path fill-rule="evenodd" clip-rule="evenodd" d="M19.5566 14.8791C19.5566 16.176 18.5691 17.2256 17.0248 17.2256C15.5407 17.2256 14.5531 16.176 14.5837 14.8791C14.5531 13.5191 15.5406 12.5 17.0544 12.5C18.5691 12.5 19.527 13.5191 19.5566 14.8791ZM14.7079 34.1866V19.0794H19.4029V34.1855L14.7079 34.1866Z" fill="white"/>
<path fill-rule="evenodd" clip-rule="evenodd" d="M23.1662 23.9007C23.1662 22.0164 23.1041 20.4099 23.042 19.0815H27.1201L27.3369 21.1511H27.4296C28.0475 20.1932 29.5918 18.7424 32.0941 18.7424C35.1827 18.7424 37.4997 20.7815 37.4997 25.2282V34.1886H32.8046V25.8165C32.8046 23.8692 32.1256 22.5416 30.4266 22.5416C29.1287 22.5416 28.3569 23.4374 28.0485 24.3018C27.9243 24.6113 27.8631 25.043 27.8631 25.4765V34.1886H23.168V23.9007H23.1662Z" fill="white"/>
</svg>
