<svg width="107" height="114" viewBox="0 0 107 114" fill="none" xmlns="http://www.w3.org/2000/svg">
<path d="M15.2857 114H91.6498C101.883 114 107 110.61 107 103.831C107 99.7284 105.753 95.4102 103.259 90.8761C100.808 86.2989 97.2395 82.0239 92.5527 78.0511C87.909 74.0784 82.2978 70.8398 75.7191 68.3352C69.1404 65.7875 61.7448 64.5136 53.5322 64.5136C45.2767 64.5136 37.8381 65.7875 31.2164 68.3352C24.6377 70.8398 19.0265 74.0784 14.3828 78.0511C9.739 82.0239 6.17018 86.2989 3.67631 90.8761C1.22544 95.4102 0 99.7284 0 103.831C0 110.61 5.09524 114 15.2857 114ZM12.8993 104.025C12.1684 104.025 11.6309 103.895 11.2869 103.636C10.9429 103.42 10.7709 103.01 10.7709 102.406C10.7709 99.9875 11.6954 97.2023 13.5443 94.05C15.4362 90.8545 18.1881 87.7886 21.7999 84.8523C25.4547 81.8727 29.9265 79.4114 35.2152 77.4682C40.5469 75.4818 46.6526 74.4886 53.5322 74.4886C60.3689 74.4886 66.4316 75.4818 71.7203 77.4682C77.009 79.4114 81.4593 81.8727 85.0711 84.8523C88.7259 87.7886 91.4993 90.8545 93.3912 94.05C95.2831 97.2023 96.229 99.9875 96.229 102.406C96.229 103.01 96.0571 103.42 95.7131 103.636C95.4121 103.895 94.8746 104.025 94.1007 104.025H12.8993ZM53.5322 57.1943C58.391 57.1943 62.8198 55.8773 66.8186 53.2432C70.8604 50.6091 74.0637 47.1114 76.4286 42.75C78.8364 38.3455 80.0404 33.4875 80.0404 28.1761C80.0404 22.9943 78.8579 18.2659 76.4931 13.9909C74.1282 9.71591 70.9249 6.32614 66.8831 3.82159C62.8413 1.27386 58.391 0 53.5322 0C48.6735 0 44.2232 1.27386 40.1814 3.82159C36.1826 6.36932 32.9793 9.78068 30.5714 14.0557C28.1636 18.3307 26.9811 23.0807 27.0241 28.3057C27.0241 33.617 28.2065 38.4534 30.5714 42.8148C32.9793 47.1761 36.1826 50.6739 40.1814 53.308C44.2232 55.8989 48.6735 57.1943 53.5322 57.1943ZM53.5322 47.2193C50.6514 47.2193 47.9855 46.3989 45.5347 44.758C43.0838 43.0739 41.1274 40.8068 39.6655 37.9568C38.2035 35.0636 37.4726 31.8466 37.4726 28.3057C37.4726 24.8511 38.182 21.742 39.601 18.9784C41.0629 16.2148 43.0193 14.0341 45.4702 12.4364C47.921 10.7955 50.6084 9.975 53.5322 9.975C56.4991 9.975 59.1865 10.7739 61.5943 12.3716C64.0022 13.9693 65.9156 16.15 67.3345 18.9136C68.7965 21.6341 69.5274 24.7216 69.5274 28.1761C69.5274 31.7602 68.7965 34.9989 67.3345 37.892C65.8726 40.742 63.9377 43.0091 61.5298 44.6932C59.122 46.3773 56.4561 47.2193 53.5322 47.2193Z" fill="#49484B"/>
</svg>
