<svg width="158" height="124" viewBox="0 0 158 124" fill="none" xmlns="http://www.w3.org/2000/svg">
<path d="M20.6057 124H137.394C144.172 124 149.301 122.27 152.781 118.811C156.26 115.396 158 110.298 158 103.515V35.848C158 29.0653 156.26 23.9442 152.781 20.4846C149.301 17.025 144.172 15.2952 137.394 15.2952H119.5C117.783 15.2952 116.404 15.1814 115.365 14.9537C114.326 14.6806 113.399 14.2482 112.586 13.6564C111.773 13.0191 110.869 12.1769 109.875 11.13L104.723 5.46256C103.097 3.68722 101.312 2.34435 99.3685 1.43392C97.4706 0.477974 94.8723 0 91.5736 0H66.0197C62.7662 0 60.1679 0.477974 58.2248 1.43392C56.2817 2.34435 54.4968 3.68722 52.87 5.46256L47.7864 11.13C46.2952 12.7232 44.9395 13.8157 43.7194 14.4075C42.5445 14.9993 40.7144 15.2952 38.2291 15.2952H20.6057C13.8275 15.2952 8.6987 17.025 5.21922 20.4846C1.73974 23.9442 0 29.0653 0 35.848V103.515C0 110.298 1.73974 115.396 5.21922 118.811C8.6987 122.27 13.8275 124 20.6057 124ZM21.0802 112.46C18.0074 112.46 15.6577 111.641 14.0309 110.002C12.4041 108.363 11.5907 105.928 11.5907 102.696V36.6674C11.5907 33.4354 12.4041 31 14.0309 29.3612C15.6577 27.7225 18.0074 26.9031 21.0802 26.9031H41.2793C44.1713 26.9031 46.4985 26.5844 48.2608 25.9471C50.0232 25.2643 51.7177 24.0352 53.3445 22.2599L58.2926 16.7291C60.1001 14.7261 61.7043 13.3833 63.1051 12.7004C64.5511 12.0176 66.675 11.6762 69.4766 11.6762H88.1845C90.9861 11.6762 93.0874 12.0176 94.4882 12.7004C95.9342 13.3833 97.5384 14.7034 99.3007 16.6608L104.317 22.2599C105.898 24.0352 107.57 25.2643 109.332 25.9471C111.095 26.5844 113.422 26.9031 116.314 26.9031H136.92C139.993 26.9031 142.342 27.7225 143.969 29.3612C145.641 31 146.477 33.4354 146.477 36.6674V102.696C146.477 105.928 145.641 108.363 143.969 110.002C142.342 111.641 139.993 112.46 136.92 112.46H21.0802ZM79.0339 103.515C85.4506 103.515 91.2798 101.945 96.5217 98.804C101.809 95.663 106.011 91.4523 109.129 86.1718C112.247 80.8458 113.806 74.9281 113.806 68.4185C113.806 61.909 112.247 55.9912 109.129 50.6652C106.011 45.3392 101.809 41.1057 96.5217 37.9648C91.2798 34.8238 85.4506 33.2533 79.0339 33.2533C72.6172 33.2533 66.7653 34.8238 61.4783 37.9648C56.1913 41.1057 51.9888 45.3392 48.8709 50.6652C45.7981 55.9912 44.2617 61.909 44.2617 68.4185C44.2617 74.9281 45.7981 80.8458 48.8709 86.1718C51.9888 91.4523 56.1913 95.663 61.4783 98.804C66.7653 101.945 72.6172 103.515 79.0339 103.515ZM79.0339 92.7952C74.5603 92.7952 70.4933 91.7026 66.8331 89.5176C63.2181 87.3326 60.3034 84.3965 58.0892 80.7093C55.9202 77.022 54.8357 72.9251 54.8357 68.4185C54.8357 63.9119 55.9202 59.815 58.0892 56.1278C60.2583 52.395 63.1729 49.4589 66.8331 47.3194C70.4933 45.1344 74.5603 44.0419 79.0339 44.0419C83.5075 44.0419 87.5518 45.1344 91.1669 47.3194C94.8271 49.4589 97.7417 52.395 99.9108 56.1278C102.125 59.815 103.232 63.9119 103.232 68.4185C103.232 72.9251 102.125 77.022 99.9108 80.7093C97.7417 84.3965 94.8271 87.3326 91.1669 89.5176C87.5518 91.7026 83.5075 92.7952 79.0339 92.7952ZM116.178 44.9295C116.178 47.2511 116.992 49.2085 118.619 50.8018C120.245 52.3495 122.166 53.1234 124.38 53.1234C126.594 53.1234 128.492 52.3267 130.074 50.7335C131.701 49.1402 132.514 47.2056 132.514 44.9295C132.514 42.7445 131.701 40.8326 130.074 39.1938C128.447 37.5551 126.549 36.7357 124.38 36.7357C122.166 36.7357 120.245 37.5551 118.619 39.1938C116.992 40.8326 116.178 42.7445 116.178 44.9295Z" fill="#49484B"/>
</svg>
