<svg width="171" height="150" viewBox="0 0 171 150" fill="none" xmlns="http://www.w3.org/2000/svg">
<path d="M37.4179 150H133.208C138.397 150 142.438 148.554 145.331 145.663C148.275 142.822 149.747 138.858 149.747 133.774V55.4836L137.025 46.8843V130.184C137.025 132.478 136.426 134.222 135.228 135.419C134.031 136.615 132.335 137.213 130.14 137.213H40.4862C38.2411 137.213 36.5199 136.615 35.3225 135.419C34.1751 134.222 33.6013 132.478 33.6013 130.184V46.8843L20.8792 55.4836V133.774C20.8792 138.858 22.326 142.822 25.2197 145.663C28.1133 148.554 32.1794 150 37.4179 150ZM0 70.663C0 72.3081 0.598687 73.7537 1.79606 75C3.04333 76.2463 4.68972 76.8694 6.73523 76.8694C7.78293 76.8694 8.7558 76.6451 9.65383 76.1964C10.6018 75.6979 11.4499 75.0997 12.1982 74.4018L82.8433 15.2542C83.6915 14.4566 84.5895 14.0578 85.5374 14.0578C86.5352 14.0578 87.4832 14.4566 88.3812 15.2542L158.877 74.4018C159.675 75.0997 160.523 75.6979 161.421 76.1964C162.369 76.6451 163.367 76.8694 164.414 76.8694C166.26 76.8694 167.807 76.346 169.054 75.2991C170.351 74.2024 171 72.7069 171 70.8126C171 68.6191 170.177 66.8245 168.53 65.4287L94.8919 3.66401C92.0481 1.22134 88.9549 0 85.6123 0C82.3195 0 79.2263 1.22134 76.3326 3.66401L2.61926 65.5035C0.873085 66.8993 0 68.6191 0 70.663Z" fill="#49484B"/>
</svg>
