<svg width="150" height="160" viewBox="0 0 150 160" fill="none" xmlns="http://www.w3.org/2000/svg">
<path d="M66.6972 150.472C57.3278 150.472 48.7391 148.891 40.9312 145.729C33.1737 142.568 26.474 138.152 20.8322 132.481C15.1904 126.761 10.8079 120.111 7.68473 112.534C4.56158 104.956 3 96.7264 3 87.8442C3 78.8113 4.61195 70.3807 7.83585 62.5523C11.0598 54.6736 15.5178 47.7736 21.21 41.8521C26.9526 35.9305 33.5767 31.4392 41.0823 28.3781C42.8958 27.6756 44.4825 27.4246 45.8426 27.6254C47.2027 27.8261 48.2606 28.353 49.0162 29.2061C50.5777 31.0629 50.5777 33.572 49.0162 36.7335C47.9079 39.0418 46.976 42.1782 46.2204 46.1426C45.4648 50.107 45.087 54.222 45.087 58.4875C45.087 68.8752 47.2279 77.883 51.5096 85.5107C55.8418 93.0882 61.9118 98.9595 69.7196 103.125C77.5779 107.29 86.8214 109.372 97.4502 109.372C101.48 109.372 105.157 109.071 108.482 108.469C111.807 107.817 114.829 106.964 117.549 105.91C118.96 105.308 120.244 105.082 121.403 105.232C122.612 105.383 123.569 105.809 124.274 106.512C125.08 107.265 125.559 108.293 125.71 109.598C125.911 110.903 125.634 112.433 124.879 114.19C121.554 121.818 117.02 128.316 111.278 133.686C105.586 139.105 98.9363 143.245 91.3299 146.106C83.7738 149.016 75.563 150.472 66.6972 150.472ZM66.8484 138.277C72.6413 138.277 78.132 137.5 83.3205 135.944C88.5593 134.438 93.3196 132.281 97.6014 129.47C101.883 126.61 105.535 123.223 108.558 119.308C107.097 119.76 105.107 120.162 102.588 120.513C100.12 120.814 97.3999 120.964 94.4278 120.964C82.2878 120.964 71.6338 118.506 62.4659 113.588C53.2979 108.62 46.1701 101.694 41.0823 92.8122C35.9946 83.9299 33.4508 73.5673 33.4508 61.7243C33.4508 58.5126 33.6774 55.3762 34.1308 52.3151C34.5842 49.2038 35.1886 46.519 35.9442 44.2608C31.7129 47.623 28.0608 51.5372 24.988 56.0035C21.9152 60.4195 19.5225 65.2621 17.8098 70.5313C16.1475 75.8004 15.3163 81.2954 15.3163 87.0161C15.3163 94.3428 16.5505 101.117 19.0188 107.34C21.5374 113.563 25.0888 118.982 29.6727 123.599C34.3071 128.216 39.7726 131.804 46.0693 134.363C52.366 136.973 59.2923 138.277 66.8484 138.277ZM120.269 83.403C119.615 83.403 119.035 83.2023 118.532 82.8008C118.078 82.3492 117.801 81.8223 117.7 81.2201C117.046 76.4528 116.416 72.7644 115.811 70.1549C115.207 67.4952 114.199 65.4879 112.789 64.133C111.378 62.7781 109.263 61.7493 106.442 61.0468C103.671 60.2941 99.7926 59.441 94.8056 58.4875C93.3448 58.1362 92.6144 57.2831 92.6144 55.9282C92.6144 55.2256 92.8159 54.6485 93.2189 54.1969C93.6722 53.7453 94.2011 53.4693 94.8056 53.3689C99.7926 52.6663 103.671 51.9889 106.442 51.3365C109.263 50.634 111.353 49.6052 112.713 48.2503C114.124 46.8452 115.157 44.7877 115.811 42.0779C116.466 39.3178 117.096 35.5291 117.7 30.7116C117.902 29.1057 118.758 28.3028 120.269 28.3028C121.781 28.3028 122.637 29.1308 122.838 30.7869C123.443 35.504 124.073 39.1924 124.727 41.8521C125.382 44.5117 126.415 46.4939 127.825 47.7987C129.286 49.1034 131.402 50.1321 134.172 50.8849C136.993 51.5874 140.847 52.4154 145.733 53.3689C147.244 53.6198 148 54.4729 148 55.9282C148 57.3333 147.144 58.1864 145.431 58.4875C140.595 59.2402 136.792 59.9679 134.021 60.6704C131.251 61.373 129.16 62.4017 127.75 63.7566C126.339 65.1116 125.307 67.1439 124.652 69.8538C124.047 72.5636 123.443 76.3022 122.838 81.0695C122.637 82.6252 121.781 83.403 120.269 83.403ZM86.0406 34.7763C85.1843 34.7763 84.6554 34.3247 84.4539 33.4214C83.8998 30.4607 83.396 28.1523 82.9427 26.4963C82.5397 24.8402 81.91 23.5857 81.0537 22.7326C80.2477 21.8795 78.9632 21.202 77.2001 20.7002C75.4874 20.1984 73.0947 19.6213 70.0219 18.9689C69.0648 18.8184 68.5862 18.2915 68.5862 17.3882C68.5862 16.4849 69.0648 15.958 70.0219 15.8074C73.0947 15.2052 75.4874 14.6532 77.2001 14.1514C78.9128 13.6496 80.1721 12.9721 80.9781 12.119C81.8345 11.2659 82.4641 10.0114 82.8671 8.35536C83.3205 6.64916 83.8494 4.34077 84.4539 1.4302C84.6554 0.476732 85.1843 0 86.0406 0C86.897 0 87.4259 0.476732 87.6274 1.4302C88.2319 4.34077 88.7608 6.62407 89.2142 8.28008C89.6675 9.9361 90.2972 11.2157 91.1032 12.119C91.9595 12.9721 93.2189 13.6496 94.8812 14.1514C96.5939 14.6031 99.0118 15.1551 102.135 15.8074C103.042 16.0082 103.495 16.5351 103.495 17.3882C103.495 18.2915 103.017 18.8184 102.059 18.9689C98.9866 19.5711 96.5939 20.1231 94.8812 20.6249C93.1685 21.1268 91.884 21.8042 91.0276 22.6573C90.1713 23.5104 89.5164 24.7901 89.0631 26.4963C88.6097 28.1523 88.1311 30.4607 87.6274 33.4214C87.4259 34.3247 86.897 34.7763 86.0406 34.7763Z" fill="#49484B"/>
</svg>
