<svg width="119" height="150" viewBox="0 0 119 150" fill="none" xmlns="http://www.w3.org/2000/svg">
<path d="M33.5243 41.3641H85.6238C86.8572 41.3641 87.8932 40.947 88.732 40.1129C89.5707 39.2787 89.9901 38.2238 89.9901 36.948C89.9901 35.7704 89.5707 34.7645 88.732 33.9303C87.8932 33.0962 86.8572 32.6791 85.6238 32.6791H33.5243C32.2415 32.6791 31.1561 33.0962 30.268 33.9303C29.4293 34.7645 29.01 35.7704 29.01 36.948C29.01 38.2238 29.4293 39.2787 30.268 40.1129C31.1561 40.947 32.2415 41.3641 33.5243 41.3641ZM33.5243 65.4318H85.6238C86.8572 65.4318 87.8932 65.0147 88.732 64.1806C89.5707 63.2974 89.9901 62.2424 89.9901 61.0157C89.9901 59.789 89.5707 58.7831 88.732 57.998C87.8932 57.1639 86.8572 56.7468 85.6238 56.7468H33.5243C32.2415 56.7468 31.1561 57.1639 30.268 57.998C29.4293 58.7831 29.01 59.789 29.01 61.0157C29.01 62.2424 29.4293 63.2974 30.268 64.1806C31.1561 65.0147 32.2415 65.4318 33.5243 65.4318ZM33.5243 89.4259H58.3899C59.6727 89.4259 60.7334 89.0334 61.5721 88.2483C62.4109 87.4141 62.8302 86.3837 62.8302 85.157C62.8302 83.9303 62.4109 82.8999 61.5721 82.0658C60.7334 81.1825 59.6727 80.7409 58.3899 80.7409H33.5243C32.2415 80.7409 31.1561 81.1825 30.268 82.0658C29.4293 82.8999 29.01 83.9303 29.01 85.157C29.01 86.3837 29.4293 87.4141 30.268 88.2483C31.1561 89.0334 32.2415 89.4259 33.5243 89.4259ZM0 127.699C0 135.108 1.87479 140.677 5.62438 144.406C9.37396 148.135 14.9243 150 22.2755 150H96.7245C104.125 150 109.675 148.135 113.376 144.406C117.125 140.677 119 135.108 119 127.699V22.3749C119 14.9657 117.125 9.39647 113.376 5.66732C109.675 1.88911 104.125 0 96.7245 0H22.2755C14.9243 0 9.37396 1.88911 5.62438 5.66732C1.87479 9.39647 0 14.9657 0 22.3749V127.699ZM12.6549 127.11V22.9637C12.6549 19.578 13.5182 17.002 15.245 15.2355C17.0211 13.4691 19.6607 12.5859 23.1636 12.5859H95.8364C99.3393 12.5859 101.979 13.4691 103.755 15.2355C105.531 17.002 106.419 19.578 106.419 22.9637V127.11C106.419 130.496 105.531 133.072 103.755 134.838C101.979 136.654 99.3393 137.561 95.8364 137.561H23.1636C19.6607 137.561 17.0211 136.654 15.245 134.838C13.5182 133.072 12.6549 130.496 12.6549 127.11Z" fill="#49484B"/>
</svg>
