<svg width="120" height="120" viewBox="0 0 120 120" fill="none" xmlns="http://www.w3.org/2000/svg">
<path d="M59.8125 90.375C55.6458 90.375 51.7083 89.5833 48 88C44.3333 86.375 41.0833 84.1667 38.25 81.375C35.4583 78.5417 33.25 75.2917 31.625 71.625C30.0417 67.9167 29.25 63.9792 29.25 59.8125C29.25 55.6458 30.0417 51.7292 31.625 48.0625C33.25 44.3542 35.4583 41.1042 38.25 38.3125C41.0833 35.4792 44.3333 33.2708 48 31.6875C51.7083 30.0625 55.6458 29.25 59.8125 29.25C63.9792 29.25 67.8958 30.0625 71.5625 31.6875C75.2708 33.2708 78.5208 35.4792 81.3125 38.3125C84.1458 41.1042 86.3542 44.3542 87.9375 48.0625C89.5625 51.7292 90.375 55.6458 90.375 59.8125C90.375 63.9792 89.5625 67.9167 87.9375 71.625C86.3542 75.2917 84.1458 78.5417 81.3125 81.375C78.5208 84.1667 75.2708 86.375 71.5625 88C67.8958 89.5833 63.9792 90.375 59.8125 90.375ZM59.8125 80.3125C63.5625 80.3125 66.9792 79.3958 70.0625 77.5625C73.1875 75.6875 75.6667 73.1875 77.5 70.0625C79.375 66.9375 80.3125 63.5208 80.3125 59.8125C80.3125 56.0625 79.375 52.6458 77.5 49.5625C75.6667 46.4375 73.1875 43.9583 70.0625 42.125C66.9792 40.25 63.5625 39.3125 59.8125 39.3125C56.1042 39.3125 52.6875 40.25 49.5625 42.125C46.4375 43.9583 43.9375 46.4375 42.0625 49.5625C40.2292 52.6875 39.3125 56.1042 39.3125 59.8125C39.3125 63.5208 40.2292 66.9375 42.0625 70.0625C43.9375 73.1875 46.4375 75.6875 49.5625 77.5625C52.6875 79.3958 56.1042 80.3125 59.8125 80.3125ZM7.1875 67C5.1875 67 3.47917 66.3125 2.0625 64.9375C0.6875 63.5208 0 61.8125 0 59.8125C0 57.8125 0.6875 56.125 2.0625 54.75C3.47917 53.3333 5.1875 52.625 7.1875 52.625C9.14583 52.625 10.8125 53.3333 12.1875 54.75C13.6042 56.125 14.3125 57.8125 14.3125 59.8125C14.3125 61.8125 13.6042 63.5208 12.1875 64.9375C10.8125 66.3125 9.14583 67 7.1875 67ZM22.5625 29.75C20.5625 29.75 18.8542 29.0625 17.4375 27.6875C16.0625 26.2708 15.375 24.5625 15.375 22.5625C15.375 20.5625 16.0625 18.875 17.4375 17.5C18.8542 16.0833 20.5625 15.375 22.5625 15.375C24.5625 15.375 26.25 16.0833 27.625 17.5C29.0417 18.875 29.75 20.5625 29.75 22.5625C29.75 24.5625 29.0417 26.2708 27.625 27.6875C26.25 29.0625 24.5625 29.75 22.5625 29.75ZM59.8125 14.3125C57.8125 14.3125 56.1042 13.625 54.6875 12.25C53.3125 10.8333 52.625 9.14583 52.625 7.1875C52.625 5.1875 53.3125 3.5 54.6875 2.125C56.1042 0.708333 57.8125 0 59.8125 0C61.8125 0 63.5 0.708333 64.875 2.125C66.2917 3.5 67 5.1875 67 7.1875C67 9.14583 66.2917 10.8333 64.875 12.25C63.5 13.625 61.8125 14.3125 59.8125 14.3125ZM97.0625 29.75C95.1042 29.75 93.4167 29.0625 92 27.6875C90.5833 26.2708 89.875 24.5625 89.875 22.5625C89.875 20.5625 90.5833 18.875 92 17.5C93.4167 16.0833 95.1042 15.375 97.0625 15.375C99.0625 15.375 100.75 16.0833 102.125 17.5C103.542 18.875 104.25 20.5625 104.25 22.5625C104.25 24.5625 103.542 26.2708 102.125 27.6875C100.75 29.0625 99.0625 29.75 97.0625 29.75ZM112.438 67C110.521 67 108.854 66.3125 107.438 64.9375C106.021 63.5208 105.312 61.8125 105.312 59.8125C105.312 57.8125 106.021 56.125 107.438 54.75C108.854 53.3333 110.521 52.625 112.438 52.625C114.438 52.625 116.125 53.3333 117.5 54.75C118.917 56.125 119.625 57.8125 119.625 59.8125C119.625 61.8125 118.917 63.5208 117.5 64.9375C116.125 66.3125 114.438 67 112.438 67ZM97.0625 104.25C95.1042 104.25 93.4167 103.562 92 102.188C90.5833 100.771 89.875 99.0625 89.875 97.0625C89.875 95.0625 90.5833 93.375 92 92C93.4167 90.5833 95.1042 89.875 97.0625 89.875C99.0625 89.875 100.75 90.5833 102.125 92C103.542 93.375 104.25 95.0625 104.25 97.0625C104.25 99.0625 103.542 100.771 102.125 102.188C100.75 103.562 99.0625 104.25 97.0625 104.25ZM59.8125 119.625C57.8125 119.625 56.1042 118.917 54.6875 117.5C53.3125 116.125 52.625 114.438 52.625 112.438C52.625 110.479 53.3125 108.792 54.6875 107.375C56.1042 106 57.8125 105.312 59.8125 105.312C61.8125 105.312 63.5 106 64.875 107.375C66.2917 108.792 67 110.479 67 112.438C67 114.438 66.2917 116.125 64.875 117.5C63.5 118.917 61.8125 119.625 59.8125 119.625ZM22.5625 104.25C20.5625 104.25 18.8542 103.562 17.4375 102.188C16.0625 100.771 15.375 99.0625 15.375 97.0625C15.375 95.0625 16.0625 93.375 17.4375 92C18.8542 90.5833 20.5625 89.875 22.5625 89.875C24.5625 89.875 26.25 90.5833 27.625 92C29.0417 93.375 29.75 95.0625 29.75 97.0625C29.75 99.0625 29.0417 100.771 27.625 102.188C26.25 103.562 24.5625 104.25 22.5625 104.25Z" fill="#49484B"/>
</svg>
