<svg width="158" height="133" viewBox="0 0 158 133" fill="none" xmlns="http://www.w3.org/2000/svg">
<path d="M8.0605 64.6756C18.6652 68.4436 29.9356 71.2577 41.8718 73.1178C53.8555 74.9779 66.2197 75.908 78.9643 75.908C91.7565 75.908 104.121 74.9779 116.057 73.1178C127.993 71.2577 139.287 68.4436 149.94 64.6756L149.868 52.2985C139.549 56.4004 128.421 59.4768 116.485 61.5277C104.596 63.5786 92.0894 64.6041 78.9643 64.6041C65.8393 64.6041 53.3324 63.5786 41.4438 61.5277C29.5552 59.4768 18.4512 56.3765 8.13183 52.227L8.0605 64.6756ZM68.4786 88.2851H89.5214C94.7524 88.2851 97.3679 85.7334 97.3679 80.6299V69.6837H60.6321V80.6299C60.6321 85.7334 63.2476 88.2851 68.4786 88.2851ZM21.3995 133H136.6C143.686 133 149.012 131.235 152.579 127.706C156.193 124.176 158 118.858 158 111.751V45.7165C158 38.6575 156.193 33.3633 152.579 29.8338C149.012 26.3043 143.686 24.5395 136.6 24.5395H21.3995C14.3139 24.5395 8.96403 26.3043 5.34989 29.8338C1.7833 33.3633 0 38.6575 0 45.7165V111.751C0 118.858 1.7833 124.176 5.34989 127.706C8.96403 131.235 14.3139 133 21.3995 133ZM21.7562 121.052C18.6176 121.052 16.2399 120.241 14.623 118.62C13.0062 116.998 12.1977 114.566 12.1977 111.322V46.2173C12.1977 42.974 13.0062 40.5415 14.623 38.9199C16.2399 37.2505 18.6176 36.4158 21.7562 36.4158H136.244C139.382 36.4158 141.76 37.2505 143.377 38.9199C145.041 40.5415 145.874 42.974 145.874 46.2173V111.322C145.874 114.566 145.041 116.998 143.377 118.62C141.76 120.241 139.382 121.052 136.244 121.052H21.7562ZM44.1544 30.1915H55.5675V18.3868C55.5675 15.9066 56.257 13.9987 57.6361 12.6633C59.0628 11.3278 61.0363 10.66 63.5567 10.66H94.372C96.94 10.66 98.9135 11.3278 100.293 12.6633C101.719 13.9987 102.433 15.9066 102.433 18.3868V30.12H113.846V18.7445C113.846 12.3532 112.181 7.63134 108.852 4.57881C105.524 1.52627 100.768 0 94.586 0H63.414C57.5172 0 52.8331 1.52627 49.3616 4.57881C45.8901 7.63134 44.1544 12.3532 44.1544 18.7445V30.1915Z" fill="#49484B"/>
</svg>
