<svg width="113" height="93" viewBox="0 0 113 93" fill="none" xmlns="http://www.w3.org/2000/svg">
<path d="M0.0625 46.1875C0.0625 48.2292 0.8125 49.9583 2.3125 51.375L41.1875 90.25C42.6875 91.6667 44.3333 92.375 46.125 92.375C48.125 92.375 49.7708 91.75 51.0625 90.5C52.3542 89.25 53 87.6667 53 85.75C53 84.75 52.8125 83.8333 52.4375 83C52.0625 82.125 51.5625 81.375 50.9375 80.75L37.6875 67.375L16.25 47.8125L13.75 51.9375L34.875 53.1875H105.562C107.646 53.1875 109.333 52.5417 110.625 51.25C111.958 49.9583 112.625 48.2708 112.625 46.1875C112.625 44.1458 111.958 42.4792 110.625 41.1875C109.333 39.8958 107.646 39.25 105.562 39.25H34.875L13.75 40.4375L16.25 44.6875L37.6875 25.0625L50.9375 11.6875C51.5625 11.0625 52.0625 10.3333 52.4375 9.5C52.8125 8.625 53 7.6875 53 6.6875C53 4.77083 52.3542 3.1875 51.0625 1.9375C49.7708 0.645833 48.125 0 46.125 0C45.25 0 44.375 0.1875 43.5 0.5625C42.6667 0.9375 41.8542 1.5 41.0625 2.25L2.3125 41.0625C0.8125 42.4792 0.0625 44.1875 0.0625 46.1875Z" fill="#999999"/>
</svg>
