<svg width="15" height="21" viewBox="0 0 15 21" fill="none" xmlns="http://www.w3.org/2000/svg">
<path d="M14.7969 10.8672C14.7969 11.1536 14.6797 11.4141 14.4453 11.6484L8.39062 17.7324C8.27995 17.8366 8.15299 17.918 8.00977 17.9766C7.86654 18.0417 7.72005 18.0742 7.57031 18.0742C7.42708 18.0742 7.28385 18.0417 7.14062 17.9766C6.9974 17.918 6.87044 17.8366 6.75977 17.7324L0.695312 11.6484C0.467448 11.4141 0.353516 11.1536 0.353516 10.8672C0.353516 10.5612 0.451172 10.3073 0.646484 10.1055C0.848307 9.90365 1.09896 9.80273 1.39844 9.80273C1.55469 9.80273 1.69792 9.83203 1.82812 9.89062C1.95833 9.94922 2.07227 10.0273 2.16992 10.125L4.26953 12.1953L7.24805 15.5547L6.60352 15.9062L6.48633 12.7812V1.59961C6.48633 1.27409 6.58398 1.01042 6.7793 0.808594C6.98112 0.60026 7.24479 0.496094 7.57031 0.496094C7.89583 0.496094 8.15951 0.60026 8.36133 0.808594C8.56315 1.01042 8.66406 1.27409 8.66406 1.59961V12.7812L8.54688 15.9062L7.90234 15.5547L10.8809 12.1953L12.9707 10.125C13.0684 10.0273 13.1823 9.94922 13.3125 9.89062C13.4427 9.83203 13.5892 9.80273 13.752 9.80273C14.0449 9.80273 14.2923 9.90365 14.4941 10.1055C14.696 10.3073 14.7969 10.5612 14.7969 10.8672ZM14.7969 19.1387C14.7969 19.4447 14.696 19.6986 14.4941 19.9004C14.2988 20.1022 14.0482 20.2031 13.7422 20.2031H1.41797C1.11198 20.2031 0.858073 20.1022 0.65625 19.9004C0.454427 19.6986 0.353516 19.4447 0.353516 19.1387C0.353516 18.8327 0.454427 18.5788 0.65625 18.377C0.858073 18.1751 1.11198 18.0742 1.41797 18.0742H13.7422C14.0482 18.0742 14.2988 18.1751 14.4941 18.377C14.696 18.5788 14.7969 18.8327 14.7969 19.1387Z" fill="white"/>
</svg>
