<svg width="299" height="299" viewBox="0 0 299 299" fill="none" xmlns="http://www.w3.org/2000/svg">
<g clip-path="url(#clip0_624_239)">
<g filter="url(#filter0_d_624_239)">
<path d="M106.583 67.7597C95.2201 92.8151 81.2758 123.563 70.8078 135.776C68.7639 131.031 68.9829 123.074 66.6469 103.657C64.5375 86.1226 50.0764 84.4585 43.8716 85.6995C30.1479 88.561 25.9672 102.471 26.425 107.599C27.155 115.775 27.1903 115.497 28.688 135.265C30.8779 164.172 19.7092 185.999 18.6872 210.745C18.6872 257.391 59.5661 280.312 88.1814 280.312C111.074 280.312 133.975 265.664 142.565 258.34L185.488 219.14C190.744 215.052 203.734 201.564 209.432 193.81C224.966 172.669 202.496 158.114 189.869 161.763C190.861 161.004 196.851 151.276 199.722 146.507C207.431 131.031 199.723 120.722 194.029 117.892C181.108 111.468 171.618 118.695 168.625 122.636C169.769 120.69 173.355 112.826 179.137 98.4011C184.918 83.9767 175.609 75.0661 170.231 72.4138C158.551 67.012 147.456 73.8738 144.682 80.0056C143.323 83.0083 135.997 99.0561 132.806 106.133C135.21 100.265 139.565 88.6059 141.105 83.2175C144.171 70.5159 136.798 61.805 132.127 59.5664C125.63 56.4538 112.08 55.6385 106.723 67.4501L106.583 67.7597Z" fill="#FFC83D"/>
</g>
<path d="M132.845 64.6138C131.862 61.4302 130.501 59.5124 129.476 58.5527C130.446 58.8444 131.338 59.1885 132.127 59.5664C136.799 61.805 144.171 70.5159 141.105 83.2176C139.566 88.606 135.211 100.265 132.806 106.133L133.961 103.579C128.687 115.676 122.122 128.707 117.174 137.122C115.866 139.346 113.003 140.089 110.778 138.781C108.554 137.473 107.811 134.61 109.119 132.386C117.15 118.729 129.378 92.8139 132.874 79.9486C134.464 74.0962 134.107 68.6973 132.845 64.6138Z" fill="#D67D00"/>
<path d="M199.723 146.507C197.552 150.113 193.599 156.553 191.37 159.809C188.417 163.362 185.182 166.765 181.911 170.004C178.179 173.697 174.302 177.269 170.629 180.651L170.318 180.937C166.525 184.431 162.981 187.704 159.904 190.816C158.091 192.651 155.133 192.668 153.298 190.854C151.462 189.041 151.445 186.083 153.259 184.247C156.517 180.952 160.227 177.529 163.988 174.064L164.252 173.821C167.958 170.408 171.728 166.937 175.337 163.363C182.794 155.982 189.16 148.552 192.547 141.075C194.945 135.783 195.533 129.59 194.879 124.469C194.553 121.919 193.942 119.823 193.237 118.354C193.001 117.862 192.783 117.497 192.598 117.229C193.07 117.431 193.547 117.652 194.029 117.892C199.723 120.722 207.432 131.031 199.723 146.507Z" fill="#D67D00"/>
<path d="M169.285 72.0021C170.277 72.6755 171.648 74.3026 172.514 77.463C173.49 81.0232 173.641 86.0291 172.001 92.0663C169.625 100.812 163.669 112.542 156.853 124.034C150.097 135.423 142.736 146.185 137.845 152.874C136.322 154.957 136.776 157.88 138.859 159.403C140.941 160.926 143.864 160.472 145.387 158.389C150.424 151.501 157.956 140.489 164.889 128.801C166.749 125.665 168.585 122.45 170.326 119.23C172.139 115.334 175.104 108.464 179.137 98.4011C184.918 83.9767 175.609 75.0661 170.231 72.4138C169.915 72.2677 169.6 72.1305 169.285 72.0021Z" fill="#D67D00"/>
<path d="M68.4364 120.943C69.1161 128.366 69.5041 132.603 70.725 135.58C70.7963 136.511 70.8649 137.361 70.9346 138.127C71.1682 140.697 69.2745 142.969 66.7048 143.203C64.1352 143.436 61.8628 141.543 61.6292 138.973C61.49 137.442 61.3588 135.67 61.2106 133.667C60.6624 126.261 59.8801 115.69 57.59 102.407C56.6382 96.8866 54.1667 92.1063 51.3302 88.9912C49.1435 86.5895 47.2516 85.6593 45.9518 85.428C52.8356 84.9478 64.7476 87.8699 66.6469 103.657C67.5125 110.853 68.0273 116.475 68.4364 120.943Z" fill="#D67D00"/>
<path d="M74.399 70.6089C74.3822 73.189 72.2769 75.267 69.6967 75.2501C67.1166 75.2332 65.0386 73.128 65.0555 70.5478C65.1956 49.1066 81.4961 19.2635 116.53 19.4925C119.11 19.5094 121.188 21.6147 121.171 24.1948C121.154 26.775 119.049 28.8529 116.469 28.8361C88.1418 28.6509 74.5165 52.632 74.399 70.6089Z" fill="#5092FF"/>
<path d="M85.2419 93.3097C87.822 93.3266 89.9273 91.2486 89.9442 88.6685C89.9997 80.174 93.5037 68.858 100.943 59.7536C108.264 50.7926 119.324 44.0387 134.765 44.1397C137.345 44.1565 139.45 42.0786 139.467 39.4984C139.484 36.9183 137.406 34.813 134.826 34.7961C116.25 34.6747 102.611 42.9433 93.7069 53.8417C84.9195 64.5966 80.6701 77.9768 80.6007 88.6074C80.5838 91.1876 82.6617 93.2929 85.2419 93.3097Z" fill="#5092FF"/>
<path d="M253.45 164.538C253.45 161.957 255.541 159.866 258.122 159.866C260.702 159.866 262.793 161.957 262.793 164.538C262.793 175.169 258.632 188.576 249.915 199.388C241.082 210.345 227.497 218.702 208.921 218.702C206.341 218.702 204.249 216.611 204.249 214.03C204.249 211.45 206.341 209.358 208.921 209.358C224.362 209.358 235.378 202.532 242.641 193.524C250.02 184.371 253.45 173.032 253.45 164.538Z" fill="#5092FF"/>
<path d="M269.112 182.495C269.112 179.915 271.204 177.823 273.784 177.823C276.364 177.823 278.456 179.915 278.456 182.495C278.456 203.937 262.351 233.886 227.316 233.886C224.736 233.886 222.644 231.794 222.644 229.214C222.644 226.634 224.736 224.542 227.316 224.542C255.644 224.542 269.112 200.472 269.112 182.495Z" fill="#5092FF"/>
</g>
<defs>
<filter id="filter0_d_624_239" x="-0.3125" y="57.5781" width="220.023" height="255.734" filterUnits="userSpaceOnUse" color-interpolation-filters="sRGB">
<feFlood flood-opacity="0" result="BackgroundImageFix"/>
<feColorMatrix in="SourceAlpha" type="matrix" values="0 0 0 0 0 0 0 0 0 0 0 0 0 0 0 0 0 0 127 0" result="hardAlpha"/>
<feOffset dx="-7" dy="21"/>
<feGaussianBlur stdDeviation="6"/>
<feComposite in2="hardAlpha" operator="out"/>
<feColorMatrix type="matrix" values="0 0 0 0 0 0 0 0 0 0 0 0 0 0 0 0 0 0 0.17 0"/>
<feBlend mode="normal" in2="BackgroundImageFix" result="effect1_dropShadow_624_239"/>
<feBlend mode="normal" in="SourceGraphic" in2="effect1_dropShadow_624_239" result="shape"/>
</filter>
<clipPath id="clip0_624_239">
<rect width="299" height="299" fill="white" transform="matrix(-1 0 0 1 299 0)"/>
</clipPath>
</defs>
</svg>
