<svg width="16" height="16" viewBox="0 0 16 16" fill="none" xmlns="http://www.w3.org/2000/svg">
<mask id="mask0_825_353" style="mask-type:alpha" maskUnits="userSpaceOnUse" x="0" y="0" width="16" height="16">
<rect width="16" height="16" fill="#D9D9D9"/>
</mask>
<g mask="url(#mask0_825_353)">
<path d="M8.00033 7.99992C8.36699 7.99992 8.68088 7.86936 8.94199 7.60825C9.2031 7.34714 9.33366 7.03325 9.33366 6.66658C9.33366 6.29992 9.2031 5.98603 8.94199 5.72492C8.68088 5.46381 8.36699 5.33325 8.00033 5.33325C7.63366 5.33325 7.31977 5.46381 7.05866 5.72492C6.79755 5.98603 6.66699 6.29992 6.66699 6.66658C6.66699 7.03325 6.79755 7.34714 7.05866 7.60825C7.31977 7.86936 7.63366 7.99992 8.00033 7.99992ZM8.00033 12.8999C9.35588 11.6555 10.3614 10.5249 11.017 9.50825C11.6725 8.49158 12.0003 7.58881 12.0003 6.79992C12.0003 5.58881 11.6142 4.59714 10.842 3.82492C10.0698 3.0527 9.12255 2.66659 8.00033 2.66659C6.8781 2.66659 5.93088 3.0527 5.15866 3.82492C4.38644 4.59714 4.00033 5.58881 4.00033 6.79992C4.00033 7.58881 4.3281 8.49158 4.98366 9.50825C5.63921 10.5249 6.64477 11.6555 8.00033 12.8999ZM8.00033 14.6666C6.21144 13.1444 4.87533 11.7305 3.99199 10.4249C3.10866 9.11936 2.66699 7.91103 2.66699 6.79992C2.66699 5.13325 3.2031 3.80547 4.27533 2.81659C5.34755 1.8277 6.58921 1.33325 8.00033 1.33325C9.41144 1.33325 10.6531 1.8277 11.7253 2.81659C12.7975 3.80547 13.3337 5.13325 13.3337 6.79992C13.3337 7.91103 12.892 9.11936 12.0087 10.4249C11.1253 11.7305 9.78921 13.1444 8.00033 14.6666Z" fill="#555555"/>
</g>
</svg>
