<svg width="45" height="36" viewBox="0 0 45 36" fill="none" xmlns="http://www.w3.org/2000/svg">
<path d="M5.79485 36C3.86323 36 2.41119 35.5184 1.43872 34.5552C0.479574 33.592 0 32.1472 0 30.2207V9.29097C0 7.37793 0.459591 5.9398 1.37877 4.97659C2.31128 4.01338 3.61679 3.53177 5.29529 3.53177H30.1932C30.0466 3.94649 29.9334 4.38127 29.8535 4.83612C29.7735 5.27759 29.7336 5.72575 29.7336 6.1806H5.71492C4.71581 6.1806 3.94982 6.44816 3.41696 6.98328C2.89742 7.50502 2.63766 8.27425 2.63766 9.29097V30.2207C2.63766 31.2508 2.89742 32.0334 3.41696 32.5686C3.94982 33.0903 4.71581 33.3512 5.71492 33.3512H35.7482C36.7207 33.3512 37.4734 33.0903 38.0062 32.5686C38.5524 32.0334 38.8255 31.2575 38.8255 30.2408V15.311C39.2784 15.311 39.7247 15.2709 40.1643 15.1906C40.6039 15.1104 41.0302 14.9967 41.4432 14.8495V30.2207C41.4432 32.1472 40.9836 33.592 40.0644 34.5552C39.1452 35.5184 37.8397 36 36.1479 36H5.79485ZM20.7615 24.6823C20.1354 24.6823 19.5027 24.5418 18.8632 24.2609C18.2371 23.9799 17.6044 23.5251 16.9649 22.8963L1.4587 7.60535L3.2571 5.79933L18.4836 20.8495C18.8965 21.2642 19.2895 21.5652 19.6625 21.7525C20.0355 21.9264 20.4019 22.0134 20.7615 22.0134C21.1345 22.0134 21.5075 21.9264 21.8806 21.7525C22.2669 21.5652 22.6665 21.2642 23.0795 20.8495L31.8517 12.2007C32.1181 12.5217 32.4045 12.8294 32.7109 13.1237C33.0306 13.4047 33.3703 13.6589 33.73 13.8863L24.5782 22.8963C23.9387 23.5251 23.2993 23.9799 22.6599 24.2609C22.0337 24.5418 21.401 24.6823 20.7615 24.6823ZM38.286 33.8729L24.6581 20.388L26.4365 18.5819L40.0644 32.0468L38.286 33.8729ZM3.43695 33.6722L1.67851 31.8662L14.7269 18.9632L16.5253 20.7492L3.43695 33.6722ZM38.5857 12.903C37.4001 12.903 36.321 12.6154 35.3486 12.0401C34.3761 11.4515 33.5968 10.6689 33.0107 9.69231C32.4378 8.71572 32.1514 7.63211 32.1514 6.44147C32.1514 5.26421 32.4378 4.18729 33.0107 3.2107C33.5968 2.23411 34.3761 1.45819 35.3486 0.882943C36.321 0.294314 37.4001 0 38.5857 0C39.758 0 40.8304 0.294314 41.8028 0.882943C42.7753 1.45819 43.548 2.23411 44.1208 3.2107C44.7069 4.18729 45 5.26421 45 6.44147C45 7.63211 44.7069 8.71572 44.1208 9.69231C43.548 10.6689 42.7753 11.4515 41.8028 12.0401C40.8304 12.6154 39.758 12.903 38.5857 12.903Z" fill="#A5A5A5"/>
</svg>
