<svg width="36" height="47" viewBox="0 0 36 47" fill="none" xmlns="http://www.w3.org/2000/svg">
<path d="M26.2647 33.9937C26.6295 33.9937 26.9335 34.1153 27.1767 34.3585C27.4047 34.6016 27.5187 34.898 27.5187 35.2476C27.5187 35.582 27.4047 35.8632 27.1767 36.0912C26.9335 36.3192 26.6295 36.4332 26.2647 36.4332H9.68968C9.34009 36.4332 9.0513 36.3192 8.82331 36.0912C8.59531 35.8632 8.48132 35.582 8.48132 35.2476C8.48132 34.898 8.59531 34.6016 8.82331 34.3585C9.0513 34.1153 9.34009 33.9937 9.68968 33.9937H26.2647ZM26.2647 26.4699C26.6295 26.4699 26.9335 26.5839 27.1767 26.8119C27.4047 27.0551 27.5187 27.3515 27.5187 27.7011C27.5187 28.0355 27.4047 28.3167 27.1767 28.5446C26.9335 28.7878 26.6295 28.9094 26.2647 28.9094H9.68968C9.34009 28.9094 9.0513 28.7878 8.82331 28.5446C8.59531 28.3167 8.48132 28.0355 8.48132 27.7011C8.48132 27.3515 8.59531 27.0551 8.82331 26.8119C9.0513 26.5839 9.34009 26.4699 9.68968 26.4699H26.2647ZM36 6.58898V39.5111C36 41.6998 35.4528 43.3414 34.3585 44.4357C33.2641 45.5453 31.6377 46.1001 29.4794 46.1001H6.52058C4.34705 46.1001 2.72071 45.5453 1.64155 44.4357C0.547182 43.3414 0 41.6998 0 39.5111V6.58898C0 4.40025 0.547182 2.75871 1.64155 1.66434C2.72071 0.554781 4.34705 0 6.52058 0H29.4794C31.6377 0 33.2641 0.554781 34.3585 1.66434C35.4528 2.75871 36 4.40025 36 6.58898ZM32.8309 6.65738C32.8309 5.51742 32.5345 4.65104 31.9417 4.05826C31.349 3.45028 30.475 3.1463 29.3198 3.1463H6.68018C5.50982 3.1463 4.62825 3.45028 4.03547 4.05826C3.44269 4.65104 3.1463 5.51742 3.1463 6.65738V39.4427C3.1463 40.5674 3.44269 41.4262 4.03547 42.019C4.62825 42.627 5.50982 42.931 6.68018 42.931H29.3198C30.475 42.931 31.349 42.627 31.9417 42.019C32.5345 41.4262 32.8309 40.5674 32.8309 39.4427V6.65738Z" fill="#A5A5A5"/>
<path d="M14.0719 21.1152C13.0639 21.1152 12.5599 20.7743 12.5599 20.0924C12.5599 19.6799 12.6812 19.2455 12.9236 18.7895C13.1703 18.3292 13.5233 17.8992 13.9826 17.4996C14.4419 17.1001 14.9969 16.7743 15.6477 16.5224C16.3026 16.2662 17.0384 16.1381 17.855 16.1381C18.6673 16.1381 19.3988 16.2662 20.0496 16.5224C20.7003 16.7743 21.2553 17.1001 21.7146 17.4996C22.1782 17.8992 22.5312 18.3292 22.7736 18.7895C23.0203 19.2455 23.1437 19.6799 23.1437 20.0924C23.1437 20.7743 22.6375 21.1152 21.6253 21.1152H14.0719ZM13.8359 20.112H21.8677C21.9443 20.112 21.9975 20.099 22.0272 20.0729C22.0613 20.0512 22.0783 20.0099 22.0783 19.9491C22.0783 19.7059 21.9847 19.4258 21.7976 19.1087C21.6104 18.7874 21.3361 18.479 20.9746 18.1837C20.6173 17.884 20.1772 17.6364 19.654 17.441C19.1309 17.2412 18.5312 17.1413 17.855 17.1413C17.1745 17.1413 16.5706 17.2412 16.0432 17.441C15.5201 17.6364 15.0778 17.884 14.7162 18.1837C14.359 18.479 14.0868 18.7874 13.8997 19.1087C13.7168 19.4258 13.6253 19.7059 13.6253 19.9491C13.6253 20.0099 13.6423 20.0512 13.6764 20.0729C13.7104 20.099 13.7636 20.112 13.8359 20.112ZM17.855 15.4019C17.3744 15.4019 16.9342 15.2716 16.5344 15.0111C16.1389 14.7461 15.822 14.3943 15.5839 13.9557C15.3499 13.517 15.233 13.0306 15.233 12.4964C15.2287 11.9709 15.3457 11.4932 15.5839 11.0632C15.822 10.6333 16.1389 10.2902 16.5344 10.0339C16.9342 9.77767 17.3744 9.64955 17.855 9.64955C18.3356 9.64955 18.7758 9.77767 19.1756 10.0339C19.5754 10.2858 19.8922 10.6267 20.1261 11.0567C20.36 11.4867 20.477 11.9622 20.477 12.4834C20.477 13.0176 20.3579 13.5062 20.1197 13.9492C19.8858 14.3878 19.569 14.7396 19.1692 15.0045C18.7737 15.2695 18.3356 15.4019 17.855 15.4019ZM17.855 14.3987C18.1442 14.3987 18.4079 14.314 18.6461 14.1446C18.8842 13.9752 19.0756 13.7472 19.2202 13.4606C19.3648 13.1696 19.4371 12.8439 19.4371 12.4834C19.4371 12.136 19.3648 11.8254 19.2202 11.5518C19.0799 11.2739 18.8906 11.0545 18.6524 10.8938C18.4143 10.7331 18.1485 10.6528 17.855 10.6528C17.5658 10.6528 17.3 10.7353 17.0575 10.9004C16.8151 11.061 16.6216 11.2804 16.477 11.5583C16.3367 11.8363 16.2665 12.149 16.2665 12.4964C16.2665 12.8526 16.3388 13.1761 16.4834 13.4671C16.628 13.7537 16.8215 13.9818 17.0639 14.1511C17.3064 14.3162 17.57 14.3987 17.855 14.3987Z" fill="#A5A5A5"/>
</svg>
