<svg width="307" height="53" viewBox="0 0 307 53" fill="none" xmlns="http://www.w3.org/2000/svg">
<path d="M306.35 43.8435C306.101 43.3047 305.793 42.8771 305.447 42.5906C305.309 42.4708 305.167 42.3662 305.022 42.2773L304.721 42.1144L304.473 42.0142C304.159 41.8889 303.91 41.8263 303.655 41.7636C303.158 41.6383 302.7 41.5631 302.242 41.5005C301.332 41.3877 300.449 41.3125 299.573 41.2624C297.819 41.1622 296.085 41.1246 294.339 41.0995C289.759 41.0995 285.245 41.0995 280.718 41.1622L280.953 40.9617C281.095 40.8215 281.231 40.658 281.359 40.4731C281.63 40.1154 281.859 39.6531 282.031 39.1158C282.204 38.5785 282.316 37.9781 282.36 37.3532C282.45 36.3839 282.375 35.3849 282.147 34.503C281.918 33.6211 281.548 32.9029 281.09 32.4541C280.908 32.2535 280.712 32.1017 280.508 32.003C280.418 31.948 280.327 31.9061 280.233 31.8777C280.063 31.8151 279.998 31.8026 279.88 31.7775L279.416 31.7023C278.873 31.6397 278.421 31.6396 277.963 31.6396H276.838C276.968 31.536 277.094 31.4189 277.217 31.2888L277.446 31.0382C277.557 30.9067 277.664 30.7645 277.767 30.6122C277.985 30.2884 278.177 29.9041 278.336 29.472C278.788 28.9082 278.99 25.9888 278.441 24.2221C282.981 24.1344 287.515 24.0467 292.042 23.8963C294.293 23.8963 296.517 23.8086 298.833 23.6708L299.736 23.5831C299.9 23.5831 300.057 23.5831 300.253 23.4954L300.573 23.4077L300.816 23.3075C300.978 23.235 301.136 23.13 301.287 22.9942C301.097 23.4578 302.693 21.6786 302.445 18.7216C301.686 15.3887 301.633 16.6667 301.378 15.9776C301.175 15.7771 301.175 15.7897 301.058 15.6895L300.855 15.5516C300.613 15.4013 300.462 15.3386 300.292 15.2509C299.965 15.1006 299.677 14.9878 299.383 14.875C299.088 14.7622 298.729 14.6745 298.375 14.5743L297.505 14.4615C296.91 14.3738 296.334 14.3237 295.758 14.2611C294.234 14.1483 292.723 14.0857 291.179 14.0355L293.606 13.9478L299.101 13.8476C299.579 13.8476 300.05 13.8476 300.554 13.7473C300.802 13.7473 301.051 13.6847 301.339 13.622C301.677 13.5594 302.012 13.442 302.34 13.2712C302.433 13.2241 302.525 13.1656 302.615 13.0958C302.781 12.9833 302.941 12.8406 303.092 12.6698C302.948 13.8225 305.055 9.46223 303.419 6.56789C303.162 6.13785 302.855 5.83269 302.523 5.67825C302.332 5.58019 302.137 5.50902 301.941 5.46527L301.516 5.36501C300.992 5.27731 300.515 5.23971 300.037 5.20212C298.146 5.08936 296.314 5.07684 294.476 5.06431H283.524H280.704C281.967 4.66337 281.712 4.23736 284.1 3.81135C305.205 0.516059 288.542 -0.46127 225.481 0.19027C211.742 0.328096 197.205 0.19027 183.185 0.19027L123.349 0.115096H91.2914H76.532C71.8346 0.115096 67.4054 0.115115 63.2838 0.252941L48.1972 0.716532L46.2869 0.779164C45.9467 0.779164 45.6326 0.841819 45.1943 0.942056L44.9719 1.00473L44.769 1.09241L44.5597 1.20521C44.298 1.51845 44.4746 0.979651 43.6438 2.35791C42.8129 3.73617 43.1008 6.11682 43.5456 7.50761H40.9287H33.7322C31.3573 7.50761 28.9759 7.50761 26.5814 7.50761C24.1869 7.50761 21.7859 7.38229 19.326 7.44494C18.711 7.44494 18.0895 7.44496 17.4483 7.5452C16.7494 7.5904 16.0525 7.7159 15.3613 7.92107L15.0408 8.03383L14.6548 8.20926C14.4847 8.32203 14.3342 8.40972 14.1249 8.58514C13.9155 8.76055 13.8501 8.83574 13.7192 8.98609C13.4964 9.25832 13.292 9.58237 13.1108 9.95086C12.8252 10.5058 12.616 11.1877 12.5018 11.9356C12.3876 12.6834 12.3721 13.4738 12.4566 14.236C12.5274 14.9539 12.6819 15.632 12.9084 16.2198C13.1349 16.8077 13.4277 17.2902 13.765 17.6315C13.9377 17.8006 14.117 17.943 14.3015 18.0575L14.6155 18.2079C14.9492 18.3457 15.1978 18.5462 15.3941 18.5838C16.1595 18.7091 16.4212 18.7341 17.0493 18.7717H9.19849C7.70684 18.7717 6.22174 18.7717 4.69739 18.8845L3.52631 18.9722C3.12068 19.0349 2.74123 19.0724 2.21784 19.2228L2.00195 19.298C1.91157 19.3265 1.82204 19.3642 1.73372 19.4108C1.5888 19.4836 1.4467 19.5757 1.30846 19.6864C1.16453 20.0372 0.569181 19.6864 0 22.8313C0.0654231 26.5902 0.889754 26.5902 0.981347 26.9536C1.11212 27.1179 1.25002 27.2604 1.39352 27.3796C1.47813 27.4583 1.56558 27.5253 1.6552 27.5801L1.86456 27.7179C2.29421 27.9671 2.73111 28.168 3.17303 28.3193C4.31314 28.7337 5.46778 28.985 6.62737 29.0711C6.45475 29.5672 6.31416 30.1015 6.20866 30.6623C6.11471 31.5595 6.18026 32.491 6.39487 33.3085C6.60948 34.126 6.96079 34.7823 7.39282 35.173C7.56239 35.326 7.74005 35.4436 7.92274 35.5238C8.21692 35.6361 8.51389 35.7198 8.8125 35.7744H9.06111C9.89198 35.8997 10.6509 35.9248 11.4163 35.9624H13.9155H18.8615L38.6193 36.3007L64.9586 36.7768L46.9803 36.9773L37.0884 37.0775C33.778 37.1652 30.5461 37.0775 27.2749 36.8645C24.0037 36.6515 20.6868 36.451 17.2521 36.6891C16.3352 36.7413 15.4214 36.9172 14.5174 37.2153L14.1379 37.3532C14.0005 37.4158 13.837 37.5286 13.6865 37.6163L13.2351 37.917C13.1108 38.0298 12.9799 38.1425 12.836 38.2929C12.6208 38.5027 12.4188 38.7591 12.2341 39.0572C11.9172 39.5503 11.6885 40.2205 11.5799 40.9742C11.472 41.7314 11.4868 42.5334 11.6223 43.2741C11.7579 44.0148 12.0077 44.659 12.3388 45.1215C12.5366 45.3974 12.758 45.6052 12.993 45.7355C13.1061 45.811 13.222 45.8697 13.3398 45.9109C13.4973 45.9785 13.6568 46.0287 13.8174 46.0613C14.7183 46.1992 15.6225 46.241 16.5259 46.1866L19.0316 46.0613C22.342 45.8357 25.6132 45.5726 28.8451 45.5851L38.7239 45.7104L58.5144 45.961H61.5239L61.4519 46.0989C61.1943 46.7461 61.0459 47.5286 61.0267 48.3417C61.0075 48.9375 61.0683 49.5327 61.2033 50.0708C61.302 50.491 61.437 50.8764 61.6024 51.2109L61.7725 51.5117C61.9694 51.8179 62.1902 52.0631 62.4267 52.2384C62.5196 52.3237 62.6159 52.395 62.7146 52.4514L62.8716 52.5266L63.1857 52.6644L63.4212 52.727C63.7418 52.8273 63.9773 52.8398 64.239 52.8774C64.7362 52.8774 65.2007 52.8774 65.6521 52.8774C67.4643 52.8774 69.1653 52.7771 70.8467 52.7521L90.1269 52.9651C102.243 53.0528 112.789 52.9651 121.497 52.8147C131.114 52.6017 138.507 52.2133 143.277 51.6746H150.336L232.841 51.3237C246.534 51.5618 260.319 50.597 274.123 51.3237C281.012 51.662 287.862 51.5493 294.803 51.3237C296.543 51.2611 298.29 51.1608 300.076 50.9353C300.973 50.8225 301.869 50.6722 302.824 50.409C303.349 50.269 303.869 50.0681 304.381 49.8076C304.855 49.684 305.32 49.4613 305.768 49.1435C305.917 48.9913 306.06 48.8153 306.193 48.6173C306.398 48.3486 306.579 48.0186 306.73 47.64C306.84 47.3891 306.912 47.0861 306.939 46.7629C307.109 46.8632 306.926 44.7206 306.35 43.8435ZM279.03 33.3687C279.003 33.256 279.003 33.256 279.03 33.3687V33.3687ZM63.31 48.0535L63.3688 47.8655L63.3165 48.0409L63.31 48.0535Z" fill="url(#paint0_linear_1403_2020)" fill-opacity="0.57"/>
<defs>
<linearGradient id="paint0_linear_1403_2020" x1="0" y1="26.5" x2="307" y2="26.5" gradientUnits="userSpaceOnUse">
<stop stop-color="#FF720E"/>
<stop offset="1" stop-color="#120D56"/>
</linearGradient>
</defs>
</svg>
