<svg width="30" height="44" viewBox="0 0 30 44" fill="none" xmlns="http://www.w3.org/2000/svg">
<path d="M15 0C23.1018 0 29.667 6.76976 29.667 15.124V28.833C29.667 37.1873 23.1018 44 15 44C6.89834 43.9998 0.333984 37.1871 0.333984 28.833V15.124C0.333984 6.76988 6.89834 0.000198405 15 0ZM15 3.6416C8.85109 3.6418 3.86523 8.78347 3.86523 15.124V28.833C3.86523 35.1736 8.85109 40.3152 15 40.3154C21.1491 40.3154 26.1348 35.1737 26.1348 28.833V15.124C26.1348 8.78335 21.1491 3.6416 15 3.6416ZM15 8.55566C16.3643 8.55566 17.4443 9.50852 17.4443 10.7119V16.1777C17.4441 17.3809 16.3642 18.333 15 18.333C13.6928 18.3328 12.5559 17.3808 12.5557 16.1777V10.7119C12.5557 9.55876 13.6359 8.55584 15 8.55566Z" fill="#767F8D"/>
</svg>
