<svg width="66" height="35" viewBox="0 0 66 35" fill="none" xmlns="http://www.w3.org/2000/svg">
<path d="M1.74984 34.116C1.48661 34.1171 1.22313 34.0555 0.97198 33.9438C0.167969 33.5086 0.00233804 32.8578 1.59974e-05 32.294C-0.000500012 32.1688 0.0114668 32.0309 0.0359681 31.893C0.231978 30.7897 0.892279 29.8097 2.01682 28.9406C2.57917 28.5249 3.22977 28.234 3.94367 28.0933C4.3946 28.0162 4.4567 27.8782 4.50008 26.2368C4.57982 24.2945 5.05009 22.8267 5.91079 21.8084C6.547 21.0666 7.27245 20.6877 8.06212 20.6845C8.25014 20.6837 8.45079 20.7079 8.65155 20.7572C9.19131 20.9429 9.15474 21.1936 9.1553 21.3315C9.15566 21.4192 9.13101 21.5195 9.09377 21.6073C9.03218 21.8707 8.89512 22.0717 8.4315 22.1112C6.73972 22.2059 5.89377 23.7629 5.9061 26.7572L5.89481 27.0579C5.89589 27.321 5.93411 27.4712 6.00953 27.521C6.04723 27.5459 6.10996 27.5582 6.1977 27.5578C6.36065 27.5571 6.7113 27.4805 7.24972 27.3405C9.24099 26.9188 11.2424 25.9083 13.2539 24.3214C13.6664 24.0316 13.9665 23.8675 14.1545 23.8542C14.3425 23.8409 14.4677 23.8278 14.5053 23.8277C14.7686 23.8266 14.9569 23.901 15.0453 24.051C15.0831 24.1009 15.0959 24.1635 15.0961 24.2262C15.0968 24.389 14.9973 24.5899 14.7853 24.8413C14.4234 25.2437 13.9613 25.6466 13.3738 26.0499C12.3739 26.7431 11.2358 27.3617 9.97206 27.9056C8.69577 28.4496 7.50644 28.8053 6.39155 28.9727C5.80279 29.0629 5.66532 29.1636 5.66677 29.5144C5.67136 30.6295 5.08714 31.8221 4.25105 32.7276C3.40248 33.6457 2.56458 34.1127 1.74984 34.116ZM1.78166 32.7127C1.88194 32.7123 2.00718 32.6867 2.14485 32.636C2.65799 32.446 3.31932 31.7166 3.77985 30.9254C4.09119 30.4355 4.24001 30.0465 4.23892 29.7834C4.23851 29.6832 4.21313 29.6081 4.16279 29.5582C4.1502 29.5457 4.13767 29.5458 4.1126 29.5459C3.92458 29.5467 3.51177 29.7488 2.87411 30.1398C2.5866 30.3289 2.36165 30.4927 2.19927 30.6312C1.63764 31.2224 1.35152 31.7498 1.35343 32.2133C1.3542 32.4012 1.40496 32.5514 1.51813 32.6386C1.58101 32.6884 1.66885 32.7131 1.78166 32.7127Z" fill="#373737"/>
<path d="M12.1301 34.4993L11.9546 34.5C11.8418 34.5005 11.7289 34.4759 11.6159 34.4262C11.3272 34.3397 11.1886 34.1649 11.1876 33.9143C11.1873 33.8517 11.1996 33.7764 11.2117 33.6887C11.4208 32.7106 12.0758 30.4402 13.2018 26.89C13.9318 24.5692 14.5262 22.8003 14.985 21.5831C16.3367 18.057 17.3915 15.4592 18.1241 13.7899C18.4596 13.0619 18.6209 12.6728 18.6207 12.6227C18.6207 12.6102 18.4577 12.5983 18.1443 12.5996C17.4048 12.6027 16.6151 12.6185 15.7629 12.647C13.8705 12.7175 12.5044 12.7732 11.6899 12.8267C11.1887 12.8788 10.7626 12.9056 10.4117 12.9071C9.89776 12.9092 9.6969 12.8349 9.60797 12.5471C9.54484 12.4346 9.5193 12.3219 9.51889 12.2217C9.51843 12.1089 9.55567 12.0211 9.63051 11.9331C9.76772 11.7696 10.0806 11.6556 10.5942 11.5658C11.4835 11.4243 13.2881 11.3166 16.0205 11.2678L19.2541 11.2044L20.5344 8.59319C21.1434 7.32529 21.6283 6.3586 21.9766 5.70568C22.3123 5.05281 22.7603 4.26167 23.308 3.3323C23.7685 2.54111 24.105 2.06364 24.305 1.925C24.505 1.78636 24.6551 1.7231 24.7554 1.72269C24.9183 1.72202 25.0566 1.82168 25.1953 2.00904C25.271 2.12148 25.309 2.22155 25.3094 2.33431C25.3107 2.64752 25.0495 3.13721 24.4146 4.20475C23.8421 5.18433 23.1207 6.54039 22.2503 8.26038C21.3427 10.0682 20.8829 11.0348 20.8834 11.1476L20.8835 11.1601C20.9463 11.1974 21.8114 11.244 23.4662 11.3124C26.8636 11.4237 29.0075 11.5527 29.8856 11.7119C30.3748 11.7976 30.6509 11.8842 30.7391 11.984C30.8148 12.0965 30.8528 12.1965 30.8531 12.2842C30.8539 12.4722 30.7674 12.7732 30.5424 12.9119C30.4298 12.9751 30.2921 13.0132 30.1417 13.0138L29.8408 13.0151C29.5776 13.0161 29.2517 13.005 28.8504 12.969C27.9476 12.8976 26.8443 12.8269 25.5279 12.7697C24.2115 12.7125 23.171 12.6792 22.4063 12.6573C21.6417 12.6479 21.1277 12.6375 20.8394 12.6387C20.4884 12.6401 20.2879 12.6535 20.2254 12.6788C20.0631 12.8423 19.6654 13.6708 19.0324 15.1894C18.3994 16.708 17.7045 18.4272 16.9604 20.3722C16.2164 22.3172 15.5966 24.0111 15.1137 25.4539C14.4328 27.5114 13.6537 30.0829 12.7889 33.156C12.5293 34.0341 12.3055 34.486 12.1301 34.4993Z" fill="#373737"/>
<path d="M21.4934 28.3844C20.9168 28.3868 20.4151 28.3011 19.9882 28.1275C19.0338 27.718 18.5549 27.081 18.5515 26.2416C18.5479 25.3771 19.0079 24.4732 19.9441 23.5171C20.7057 22.7748 21.4683 22.2956 22.2321 22.092C22.495 22.0157 22.733 21.9772 22.9712 21.9762C23.648 21.9734 24.0879 22.2598 24.3034 22.8352C24.3668 23.0103 24.3925 23.1731 24.3932 23.336C24.3941 23.5615 24.3448 23.7747 24.2329 23.9756C24.0588 24.3271 23.7967 24.6038 23.4341 24.8183C23.0964 25.0076 22.7458 25.0967 22.3698 25.0983C21.9562 25.1 21.5795 24.9512 21.2399 24.6644L20.963 24.39L20.6762 24.7419C20.1648 25.3705 19.9162 25.8601 19.9177 26.2234C19.9185 26.4364 19.9944 26.599 20.1578 26.7111C20.3967 26.898 20.7731 26.9841 21.262 26.9821C21.7258 26.9802 22.3145 26.8901 23.0158 26.7243C24.3181 26.4058 25.8573 25.7981 27.6461 24.9012C28.9719 24.2067 29.8103 23.8649 30.1738 23.8634C30.4496 23.8623 30.5883 24.0747 30.59 24.4882C30.5911 24.7387 30.4789 24.9021 30.0164 25.2046C29.7039 25.4064 29.141 25.7094 28.3405 26.1136C25.4512 27.6164 23.1605 28.3775 21.4934 28.3844ZM22.5908 23.9698C22.666 23.9695 22.7536 23.9316 22.8661 23.8559C23.0161 23.7676 23.0908 23.6295 23.0901 23.4541C23.0893 23.2662 23.0137 23.1788 22.8633 23.1794C22.4497 23.1936 22.1993 23.2573 22.137 23.3453C22.0622 23.4458 22.0249 23.5211 22.0251 23.5712C22.0255 23.6715 22.1137 23.7713 22.2895 23.8583C22.4026 23.933 22.503 23.9702 22.5908 23.9698Z" fill="#373737"/>
<path d="M29.5997 30.5561C29.512 30.5564 29.4116 30.5318 29.3111 30.4821C29.1227 30.3952 29.0337 30.0823 29.0315 29.5436C29.0288 28.8796 29.1503 27.9645 29.3836 26.7859C29.6171 25.6448 29.9504 24.4031 30.3835 23.0482C30.5691 22.4586 30.7424 21.9192 30.9033 21.4174C31.3363 20.0374 31.8195 18.6698 32.3655 17.327C34.6864 11.7172 37.2501 7.23396 40.0691 3.87723C41.9404 1.71462 43.5277 0.593045 44.8183 0.500035C45.5829 0.496889 46.0225 0.708065 46.1496 1.13351C46.2768 1.57149 46.341 1.93456 46.3422 2.23524C46.3444 2.76143 46.2341 3.38831 46.0241 4.12836C45.2455 6.81268 43.2921 10.3538 40.1641 14.7642C37.285 18.7476 34.6651 21.7527 32.2793 23.7921C31.7922 24.1951 31.4302 24.5724 31.3805 24.6728C31.1085 25.5885 30.9728 26.1153 30.9608 26.2532C30.9488 26.391 30.9492 26.4662 30.9492 26.4787C30.9496 26.5664 30.9748 26.6039 31.0124 26.6037C31.0625 26.6035 31.1499 26.5155 31.2871 26.352C32.5968 24.7806 33.7954 23.6356 34.908 22.9168C35.7081 22.3999 36.3714 22.1466 36.9104 22.1444C37.7251 22.141 38.1283 22.653 38.1326 23.6929L38.1357 24.4321L38.675 24.505C38.9885 24.5413 39.3395 24.5649 39.703 24.5634C40.6682 24.5594 41.4699 24.4434 42.0957 24.2153C42.8341 23.9366 43.36 23.7967 43.6483 23.7955C43.9617 23.7942 44.1253 23.9564 44.1517 24.2945L44.1519 24.3321C44.1534 24.6954 43.8915 25.0223 43.3536 25.2876C42.7532 25.5907 42.1147 25.7813 41.4381 25.8467C40.7615 25.9121 40.2352 25.9519 39.8717 25.9534C39.2074 25.9561 38.5303 25.8963 37.8404 25.7864L37.715 25.7743C37.6022 25.7748 37.4897 25.8379 37.3773 25.9511C37.2899 26.0392 37.1652 26.19 37.0156 26.3786C36.2797 27.2711 35.4799 27.8508 34.6412 28.1298C34.3282 28.2188 34.0401 28.2701 33.7769 28.2712C33.2504 28.2734 32.811 28.0872 32.4585 27.7254L32.2317 27.4381C31.5956 28.2175 31.072 28.9088 30.6609 29.5244C30.3496 30.0142 30.1127 30.3159 29.9751 30.4042C29.8377 30.505 29.7125 30.5556 29.5997 30.5561ZM32.2962 21.8C32.3338 21.7999 32.4837 21.674 32.7459 21.4223C33.5825 20.6296 35.3669 18.6928 36.2523 17.5741C40.0805 12.7349 42.7459 8.60202 44.2233 5.15058C44.7075 4.00849 44.9544 3.10542 44.9518 2.46647C44.9503 2.10315 44.8367 1.91569 44.5986 1.91667C44.4983 1.91708 44.3731 1.95518 44.223 2.03097C43.7977 2.24571 43.2605 2.67389 42.5988 3.3281C41.7125 4.20874 40.7645 5.32769 39.7297 6.69756C38.695 8.06743 37.7608 9.49953 36.9021 11.0065C36.2924 12.099 35.6335 13.4172 34.9254 14.9737C34.2174 16.5301 33.5965 17.9609 33.088 19.2785C32.567 20.5962 32.2947 21.4242 32.2836 21.7875L32.2962 21.8ZM36.5302 24.1756C36.5928 24.1753 36.6427 24.0999 36.7047 23.9368C36.7419 23.8364 36.7666 23.7611 36.7664 23.6985C36.766 23.6108 36.7282 23.5734 36.6405 23.5737C36.5653 23.574 36.4651 23.5995 36.34 23.6501C35.9771 23.7894 35.7895 23.903 35.7899 23.9907C35.7901 24.0408 35.8905 24.078 36.0786 24.1022L36.5302 24.1756ZM33.8712 26.8175C34.0091 26.8169 34.1844 26.7912 34.3973 26.7276C34.6601 26.6263 35.1725 26.2609 35.5471 25.9085C35.7344 25.7324 35.8216 25.6193 35.8214 25.5566C35.8211 25.4814 35.7457 25.4442 35.5828 25.4448C35.3697 25.4457 35.044 25.5097 34.631 25.6492C34.3305 25.7382 34.0928 25.8519 33.9178 25.9654C33.6305 26.2171 33.4935 26.4181 33.4941 26.5685C33.4948 26.7313 33.6205 26.8185 33.8712 26.8175Z" fill="#373737"/>
<path d="M45.7316 21.3689C45.6438 21.3692 45.5435 21.3446 45.4556 21.3074C45.217 21.1956 45.1035 21.0332 45.1025 20.7952C45.1021 20.7075 45.1267 20.5946 45.1639 20.4817C45.3002 20.0927 45.6247 19.7657 46.1124 19.488C46.3001 19.3996 46.4629 19.3613 46.6007 19.3607C46.8013 19.3599 46.9521 19.447 47.0405 19.622C47.091 19.7095 47.1165 19.8096 47.1169 19.9099C47.1179 20.1354 47.0061 20.3864 46.7691 20.6755C46.2077 21.3168 45.9321 21.3681 45.7316 21.3689ZM44.1805 28.2284C43.817 28.2299 43.4909 28.1936 43.2148 28.1071C42.6499 27.8964 42.3227 27.5971 42.2209 27.2091C42.1316 26.8336 42.0802 26.5332 42.0793 26.3202C42.0777 25.9318 42.1637 25.5055 42.3249 25.0663C42.5728 24.4013 42.9964 23.7731 43.6082 23.1943C43.8955 22.955 44.1582 22.8287 44.3713 22.8278C44.6345 22.8267 44.8986 23.0386 44.8999 23.3393C44.9007 23.5397 44.8014 23.7782 44.602 24.0672C43.8664 25.0224 43.4933 25.7255 43.4952 26.1891C43.497 26.6275 43.7987 26.8393 44.4129 26.8368C44.8391 26.835 45.4152 26.7199 46.1287 26.4914C47.1678 26.1739 48.4816 25.6048 50.0702 24.8089C51.2335 24.2153 51.8843 23.962 52.0471 23.9488L52.1976 23.9482C52.3354 23.9477 52.4485 23.9973 52.524 24.0847C52.6374 24.2095 52.688 24.3346 52.6886 24.4724C52.6899 24.7856 52.4154 25.1 51.8653 25.4405C50.5397 26.1851 49.3012 26.7916 48.1374 27.2474C46.498 27.8931 45.1707 28.2243 44.1805 28.2284Z" fill="#373737"/>
<path d="M58.619 27.8934C58.3057 27.8946 58.0046 27.8458 57.7159 27.7467C57.3142 27.6106 57.0248 27.3236 56.8474 26.8608C56.784 26.6856 56.7581 26.4853 56.7572 26.2723C56.7556 25.8714 56.8539 25.3949 57.0521 24.8303C57.2128 24.2909 57.2993 23.9899 57.2992 23.9523L57.2991 23.9398C57.2365 23.94 56.6616 24.3558 55.5995 25.1745L53.8751 26.4846C52.913 27.2152 52.1749 27.5816 51.661 27.5837C51.5858 27.584 51.5105 27.5718 51.4478 27.5595C51.0338 27.4735 50.8194 27.1487 50.8171 26.5974C50.813 25.6077 51.3965 24.2271 52.5549 22.4558C52.8664 21.991 53.1285 21.7268 53.3162 21.6509C53.504 21.5875 53.6417 21.5493 53.7294 21.549C53.9801 21.5479 54.2064 21.7099 54.2079 22.0607C54.2088 22.2987 54.0848 22.625 53.8359 23.0394C53.0265 24.3583 52.6162 25.1492 52.6172 25.4123C52.6175 25.4875 52.6428 25.525 52.7054 25.5247C52.8182 25.5243 53.0058 25.4107 53.2807 25.1966C54.9675 23.8867 56.1421 23.0174 56.8298 22.5886C57.3174 22.2859 57.6928 22.134 57.9434 22.1205C58.1941 22.1194 58.4202 22.2187 58.609 22.4059C58.8227 22.5679 58.9366 22.818 58.9379 23.1562C58.9394 23.507 58.7914 24.084 58.5064 24.8995C58.3825 25.2508 58.321 25.5392 58.322 25.7772C58.3227 25.9526 58.3609 26.0903 58.4366 26.2027C58.5501 26.3652 58.7634 26.4394 59.0768 26.4382C59.879 26.4349 61.4558 25.8145 63.7948 24.5896C64.3327 24.3243 64.7329 24.1222 65.0208 24.0082C65.2335 23.9322 65.3963 23.8939 65.5217 23.8934C65.7097 23.8926 65.8605 23.9922 65.949 24.1798C65.9869 24.2423 65.9997 24.3174 66 24.38C66.0009 24.6055 65.8265 24.8568 65.4641 25.134C64.8141 25.5751 63.9763 26.0547 62.9505 26.5475C61.9247 27.0529 60.911 27.4329 59.9218 27.7001C59.4335 27.8274 59.0076 27.8918 58.619 27.8934Z" fill="#373737"/>
</svg>
