<svg width="242" height="7" viewBox="0 0 242 7" fill="none" xmlns="http://www.w3.org/2000/svg">
<path d="M241.986 4.18878C241.923 3.79687 241.778 3.46559 241.583 3.2661C241.534 3.21675 241.483 3.17575 241.431 3.14363C241.389 3.11212 241.345 3.08752 241.301 3.07013L241.14 3.01298L240.902 2.94766C239.788 2.75986 238.772 2.71903 237.711 2.64555L234.579 2.49857L228.25 2.3271L212.353 2.1148L215.262 1.95966H215.795C219.089 1.79635 217.93 1.49424 218.928 1.25745C223.484 0.195967 219.885 -0.130646 206.262 0.0489895C203.295 0.0489895 200.153 0.0489895 197.127 0.0489895L171.228 0L145.458 0.179637L95.7166 0.0816513L70.8506 0.0326618H58.3907C54.2509 0.0326618 50.1021 0.0326605 45.9533 0.114313C41.1495 0.195966 36.3458 0.313001 31.5421 0.465419L24.332 0.743041L20.7203 0.955333L19.8252 1.02882L19.3776 1.07781L19.127 1.11864H18.9838H18.8764L18.76 1.1758C18.9659 1.64938 18.0887 0.048986 18.402 3.70702C18.7242 4.18877 18.7913 4.09079 18.8182 4.13162H18.9077H19.0106H19.1539H19.4H19.8476H20.7427C25.5852 4.27043 30.365 4.2541 35.1762 4.2786H40.4529C34.1871 4.31126 27.9214 4.36024 21.6557 4.42557C15.1796 4.49905 9.83134 4.73585 6.06743 5.07879C2.30352 5.42173 0.132889 5.84632 0.00309911 6.32807C-0.243055 7.27524 14.2357 6.74451 21.6561 6.70368C49.8573 4.06631 67.3239 6.63291 91.1247 6.75267L162.545 6.93231C183.132 6.98946 215.226 6.93231 224.307 6.7935L229.23 6.70368C231.271 6.70368 233.33 6.70368 235.402 6.59753C236.437 6.55942 237.482 6.49954 238.535 6.41789C239.059 6.41789 239.582 6.33624 240.115 6.26275C240.383 6.26275 240.643 6.19742 240.938 6.1321C241.001 6.1321 241.095 6.09127 241.184 6.06678H241.247H241.283L241.386 6.01779C241.45 5.97725 241.513 5.92813 241.574 5.87082L241.663 5.781C241.744 5.64219 242.071 5.5932 241.986 4.18878ZM115.709 4.39291C105.308 4.42557 84.9638 4.42557 74.5 4.39291L80.5 3.75H87H91.4995H95.7166L102.5 3.5L110.5 3.25L240.5 2.88527L115.709 4.39291Z" fill="#F5660D"/>
</svg>
